<?xml version="1.0" standalone="no"?>
<!DOCTYPE svg PUBLIC "-//W3C//DTD SVG 20010904//EN"
 "http://www.w3.org/TR/2001/REC-SVG-20010904/DTD/svg10.dtd">
<svg version="1.0" xmlns="http://www.w3.org/2000/svg"
 width="500.000000pt" height="500.000000pt" viewBox="0 0 500.000000 500.000000"
 preserveAspectRatio="xMidYMid meet">
<metadata>
Created by potrace 1.11, written by Peter Selinger 2001-2013
</metadata>
<g transform="translate(0.000000,500.000000) scale(0.100000,-0.100000)"
fill="#000000" stroke="none">
<path d="M2597 4674 c-1 -1 -38 -5 -82 -8 -76 -6 -106 -10 -165 -21 -14 -3
-38 -8 -55 -11 -144 -25 -353 -100 -505 -180 -73 -39 -275 -167 -290 -183 -3
-3 -32 -28 -65 -56 -155 -129 -311 -314 -402 -475 -62 -109 -153 -306 -153
-330 0 -27 -3 -26 235 -110 50 -17 97 -34 105 -37 8 -3 20 -7 25 -9 6 -1 82
-27 170 -57 88 -30 231 -78 317 -105 86 -28 172 -57 190 -65 18 -8 69 -29 113
-47 227 -92 458 -204 610 -296 125 -75 118 -71 230 -154 176 -131 330 -302
405 -450 29 -59 83 -200 75 -200 -2 0 0 -11 5 -24 26 -70 30 -230 9 -356 -39
-229 -147 -472 -336 -754 -63 -94 -118 -173 -122 -176 -3 -3 -22 -25 -41 -50
-19 -25 -37 -47 -40 -50 -20 -18 -72 -93 -60 -85 254 149 548 400 721 615 166
206 294 468 324 665 24 153 24 323 1 445 -58 300 -211 565 -491 846 -128 129
-163 158 -315 259 -157 105 -382 224 -695 370 -27 13 -131 61 -230 107 -99 45
-234 112 -300 147 -66 35 -137 73 -157 83 -63 33 -67 46 -28 79 89 74 324 165
499 192 97 15 361 17 451 3 100 -16 163 -28 230 -46 194 -50 374 -165 427
-272 27 -53 57 -164 48 -178 -3 -6 -2 -10 3 -10 9 0 36 35 237 307 44 59 135
177 202 261 68 84 125 157 128 163 18 28 -334 144 -605 200 -128 27 -166 32
-295 45 -66 6 -323 13 -328 8z"/>
</g>
</svg>
